<?xml version="1.0" standalone="no"?><!DOCTYPE svg PUBLIC "-//W3C//DTD SVG 1.1//EN" "http://www.w3.org/Graphics/SVG/1.1/DTD/svg11.dtd"><svg class="icon" width="200px" height="200.00px" viewBox="0 0 1024 1024" version="1.1" xmlns="http://www.w3.org/2000/svg"><path d="M763.25 962c0-120.29-127.9-217.83-248.07-218.31C395 744.17 261 841.71 261 962z" fill="#5858AF" /><path d="M625.09 769.9c-34.69-16.58-72.67-26.06-109.91-26.21-38.58 0.15-78.58 10.32-115.12 28 16.72 26 60.53 44.56 112 44.56 52.58 0.02 97.22-19.41 113.03-46.35z" fill="#EDF2F4" /><path d="M689.54 444.94c-21.82 31.78-19.48 71.31 5.24 88.28s62.45 5 84.27-26.83 19.48-71.32-5.24-88.29-62.45-4.95-84.27 26.84z" fill="#FFD1CA" /><path d="M727.48 516.87a6 6 0 0 1-6-5.34c-3.47-31.48 12.93-46.45 20.14-51.43 8.14-5.61 20.22-9.6 28.85-5.84a6 6 0 0 1-4.79 11c-3.14-1.37-10.45 0-17.25 4.71-5.43 3.75-17.78 15.18-15 40.23a6 6 0 0 1-5.31 6.62 4.87 4.87 0 0 1-0.64 0.05z" fill="#FFBAB3" /><path d="M334.69 444.94c21.82 31.78 19.47 71.31-5.25 88.28s-62.45 5-84.27-26.83-19.47-71.32 5.25-88.29 62.44-4.95 84.27 26.84z" fill="#FFD1CA" /><path d="M296.75 516.87a5 5 0 0 1-0.67 0 6 6 0 0 1-5.31-6.62c2.77-25-9.58-36.48-15-40.23-6.8-4.69-14.11-6.08-17.24-4.71a6 6 0 0 1-4.79-11c8.63-3.76 20.7 0.23 28.85 5.84 7.21 5 23.6 19.95 20.13 51.43a6 6 0 0 1-5.97 5.29z" fill="#FFBAB3" /><path d="M568.62 755.92s-21.29 18.37-55 18.37c-36.75 0-58-18.37-58-18.37V646.83h113z" fill="#FFD1CA" /><path d="M734.6 495c0 122.87-99.62 222.48-222.49 222.48S289.63 617.87 289.63 495V367.84c0-122.87 99.61-222.49 222.48-222.49C635 145.35 734.6 245 734.6 367.84z" fill="#FFE6E1" /><path d="M507.69 570h-1.29c-16.07-0.68-26.22-14-27.33-15.54l-1.91-2.63v-131.1a10 10 0 0 1 20 0V544.8c2.33 2.26 6.13 5.07 10.16 5.21s8.6-2.55 13.31-8a10 10 0 1 1 15.12 13.09c-8.56 9.9-18 14.9-28.06 14.9z" fill="#F47A8F" /><path d="M597.32 438.32c0 17.54 12.52 31.76 27.95 31.76s27.94-14.22 27.94-31.76-12.51-31.75-27.94-31.75-27.95 14.22-27.95 31.75zM355.16 438.32c0 17.54 12.51 31.76 27.95 31.76s27.94-14.22 27.94-31.76-12.51-31.75-27.94-31.75-27.95 14.22-27.95 31.75zM413.21 382.35h-0.09l-60.07-0.87a6 6 0 1 1 0.18-12l60.06 0.86a6 6 0 0 1-0.08 12zM655.11 382.35H655l-60-0.87a6 6 0 0 1 0.17-12l60.07 0.86a6 6 0 0 1-0.08 12z" fill="#31296B" /><path d="M546.19 628.59H546l-74-1.07a10 10 0 1 1 0.29-20l74 1.07a10 10 0 0 1-0.14 20z" fill="#E83F63" /><path d="M487.96 804.6h48.3v117.57h-48.3z" fill="#EDF2F4" /><path d="M787.65 260.21c-4-57.5-45.56-103.43-108.87-88.91C684.83 102 605 68.19 554.31 80.33c0 0 58.65 25.6 68.9 48.77-122-90.93-274.15-34.78-294.92 15.68 22.75-8 52-14.75 84.83-13.82-19.91 5.85-40.24 13.3-59.28 20.83-149 58.86-112.46 232.36-112.46 232.36s13.19-21.48 17-25.8c4.56 93.1 44.13 124 44.13 124s28.76-67.17 21.1-154.55c41.06 2.56 124-4.54 166.68-15.54 66.91-17.26 120.46-40.19 160.52-92.78-2.92 16.92 33.36 85 43.6 106.11 18.89 38.89 34.09 116 34.09 116s65.5-90.81 59.15-181.38z" fill="#7781BC" /><path d="M418 282.55a8 8 0 0 1-0.64-16c138.19-11.27 184.78-76.43 185.23-77.09a8 8 0 0 1 13.16 9.1c-0.52 0.76-13.19 18.78-44.08 38.1-28 17.5-77.24 39.66-153 45.83q-0.37 0.06-0.67 0.06zM753.93 291a8 8 0 0 1-8-7.56c-3.36-61.31-43.46-72.25-45.17-72.69a8 8 0 0 1 3.81-15.54c0.57 0.14 14 3.5 27.76 16.21 12.34 11.44 27.49 33.06 29.58 71.14a8 8 0 0 1-7.55 8.43zM289.93 282.55a8 8 0 0 1-7.46-10.89c11.86-30.65 34-56.68 64-75.29 22.6-14 41.63-18.92 42.43-19.13a8 8 0 0 1 3.94 15.51c-0.18 0.05-17.83 4.66-38.4 17.5-27.19 17-46.39 39.58-57.07 67.19a8 8 0 0 1-7.44 5.11z" fill="#4F5A7F" /></svg>