<?xml version="1.0" standalone="no"?><!DOCTYPE svg PUBLIC "-//W3C//DTD SVG 1.1//EN" "http://www.w3.org/Graphics/SVG/1.1/DTD/svg11.dtd"><svg class="icon" width="200px" height="200.00px" viewBox="0 0 1024 1024" version="1.1" xmlns="http://www.w3.org/2000/svg"><path d="M707.54 444.94c-21.82 31.78-19.48 71.31 5.24 88.28s62.45 5 84.27-26.83 19.48-71.32-5.24-88.29-62.45-4.95-84.27 26.84z" fill="#FFD1CA" /><path d="M745.48 516.87a6 6 0 0 1-6-5.34c-3.47-31.48 12.93-46.45 20.14-51.43 8.14-5.61 20.22-9.6 28.85-5.84a6 6 0 0 1-4.79 11c-3.14-1.37-10.45 0-17.25 4.71-5.43 3.75-17.78 15.18-15 40.23a6 6 0 0 1-5.31 6.62 4.87 4.87 0 0 1-0.64 0.05z" fill="#FFBAB3" /><path d="M352.69 444.94c21.82 31.78 19.47 71.31-5.25 88.28s-62.45 5-84.27-26.83-19.47-71.32 5.25-88.29 62.44-4.95 84.27 26.84z" fill="#FFD1CA" /><path d="M314.75 516.87a5 5 0 0 1-0.67 0 6 6 0 0 1-5.31-6.62c2.77-25-9.58-36.48-15-40.23-6.8-4.69-14.1-6.08-17.24-4.71a6 6 0 0 1-4.79-11c8.63-3.76 20.7 0.23 28.85 5.84 7.21 5 23.6 19.95 20.13 51.43a6 6 0 0 1-5.97 5.29z" fill="#FFBAB3" /><path d="M787.64 962c0-120.29-127.9-217.83-248.08-218.31-120.17 0.48-254.2 98-254.2 218.31z" fill="#5858AF" /><path d="M590.15 755.92s-21.29 18.37-55 18.37c-36.75 0-58-18.37-58-18.37V646.83h113z" fill="#FFD1CA" /><path d="M752.6 495c0 122.87-99.62 222.48-222.49 222.48S307.63 617.87 307.63 495V367.84c0-122.87 99.61-222.49 222.48-222.49C653 145.35 752.6 245 752.6 367.84z" fill="#FFE6E1" /><path d="M525.69 570h-1.29c-16.07-0.68-26.22-14-27.33-15.54l-1.91-2.63v-131.1a10 10 0 1 1 20 0V544.8c2.33 2.26 6.13 5.07 10.16 5.21s8.6-2.55 13.31-8a10 10 0 1 1 15.12 13.09c-8.56 9.9-18 14.9-28.06 14.9z" fill="#F47A8F" /><path d="M615.32 438.32c0 17.54 12.52 31.76 27.95 31.76s27.94-14.22 27.94-31.76-12.51-31.75-27.94-31.75-27.95 14.22-27.95 31.75zM373.16 438.32c0 17.54 12.51 31.76 27.95 31.76s27.94-14.22 27.94-31.76-12.51-31.75-27.94-31.75-27.95 14.22-27.95 31.75zM431.21 382.35h-0.09l-60.07-0.87a6 6 0 1 1 0.18-12l60.06 0.86a6 6 0 0 1-0.08 12zM673.11 382.35H673l-60-0.87a6 6 0 0 1 0.17-12l60.07 0.86a6 6 0 0 1-0.08 12z" fill="#31296B" /><path d="M564.19 628.59H564l-74-1.07a10 10 0 1 1 0.29-20l74 1.07a10 10 0 0 1-0.14 20z" fill="#E83F63" /><path d="M539.67 71.15c-159.79-11.12-257.1 95-264.18 219.43-3.07 54.13 13.85 134.68 33.49 185.17 0 0 2.11-47.21 26.08-81.41 0 0-6.2-113.33 76.56-151.28 36.7-16.82 73.49 8.5 110.39 12.48 40.79 4.41 80.62-30.7 120.36-12.48C725.15 281 719 394.34 719 394.34c28.11 22.89 31.72 78.62 31.75 78.57 38.46-97.97 61.87-382.77-211.08-401.76z" fill="#7781BC" /><path d="M552.15 852.28a18.51 18.51 0 1 1-18.5-18.52 18.5 18.5 0 0 1 18.5 18.52zM552.15 922.58a18.51 18.51 0 1 1-18.5-18.52 18.5 18.5 0 0 1 18.5 18.52z" fill="#EBF2FC" /><path d="M717.78 269.18a8 8 0 0 1-7.11-4.32c-11.89-23-31.93-38.77-59.57-47a132.63 132.63 0 0 0-39.24-5.52 8 8 0 0 1-0.78-16 145.82 145.82 0 0 1 44 6c31.79 9.31 55.92 28.37 69.77 55.12a8 8 0 0 1-7.1 11.68zM322.74 276.5a8 8 0 0 1-7.31-11.24c0.33-0.74 8.23-18.27 25.75-36.41 23.31-24.15 52.76-38 85.17-40a8 8 0 1 1 1 16c-28.56 1.76-53.55 13.44-74.25 34.7a126.39 126.39 0 0 0-23 32.22 8 8 0 0 1-7.36 4.73zM525.08 230.84c-28.86 0-46.55-12.06-47.52-12.74a8 8 0 0 1 9.14-13.1c1.12 0.76 25.82 17.13 64.8 6.05a8 8 0 0 1 4.38 15.39 112.59 112.59 0 0 1-30.8 4.4z" fill="#4F5A7F" /><path d="M438.23 765.45c4.59 15.66 45.55 27.91 95.41 27.91 52.94 0 95.85-13.81 95.85-30.84a9.07 9.07 0 0 0-0.09-1.28c-29-11.19-59.66-17.43-89.84-17.55-33.77 0.13-68.65 7.94-101.33 21.76z" fill="#FFD1CA" /><path d="M444.8 756.01l89.76 36.7-48.77 77.59-96.78-83.1 55.79-31.19z" fill="#EBF2FC" /><path d="M619.73 752.22l-85.97 40.49 44.98 73.8L675.22 780l-55.49-27.78z" fill="#EBF2FC" /></svg>