<?xml version="1.0" standalone="no"?><!DOCTYPE svg PUBLIC "-//W3C//DTD SVG 1.1//EN" "http://www.w3.org/Graphics/SVG/1.1/DTD/svg11.dtd"><svg class="icon" width="200px" height="200.00px" viewBox="0 0 1024 1024" version="1.1" xmlns="http://www.w3.org/2000/svg"><path d="M173.23 374.64a332.88 305.91 0 1 0 665.76 0 332.88 305.91 0 1 0-665.76 0Z" fill="#C584CE" /><path d="M705.56 917.77c0-98.28-104.5-178-202.68-178.37-98.19 0.39-207.69 80.09-207.69 178.37zM691.58 440.22c-20.91 30.46-18.66 68.33 5 84.59s59.84 4.75 80.74-25.71 18.66-68.33-5-84.58-59.83-4.75-80.74 25.7z" fill="#FFD1CA" /><path d="M727.93 509.4a6 6 0 0 1-6-5.35c-3.34-30.29 12.46-44.71 19.4-49.5 9.59-6.62 20.54-8.82 27.89-5.62a6 6 0 1 1-4.8 11c-2.87-1.25-9.91 0.11-16.27 4.5-5.15 3.57-16.88 14.44-14.25 38.31a6 6 0 0 1-5.3 6.62c-0.23 0.02-0.45 0.04-0.67 0.04z" fill="#FFBAB3" /><path d="M322.34 440.22c20.91 30.46 18.66 68.33-5 84.59s-59.83 4.75-80.74-25.71-18.66-68.33 5-84.58 59.84-4.75 80.74 25.7z" fill="#FFD1CA" /><path d="M286 509.4h-0.66a6 6 0 0 1-5.31-6.62c2.63-23.87-9.11-34.74-14.29-38.31-6.35-4.39-13.4-5.75-16.27-4.5a6 6 0 1 1-4.79-11c7.34-3.2 18.29-1 27.88 5.62 6.95 4.79 22.74 19.21 19.4 49.5a6 6 0 0 1-5.96 5.31z" fill="#FFBAB3" /><path d="M546.46 749.4s-17.9 15-45.43 15c-30 0-47.93-15-47.93-15v-87.86h93.36z" fill="#FFD1CA" /><path d="M733.19 489.64c0 110.8-89.83 200.63-200.64 200.63h-51.18c-110.81 0-200.64-89.83-200.64-200.63V388.17c0-110.8 89.83-200.63 200.64-200.63h51.18c110.81 0 200.64 89.83 200.64 200.63z" fill="#FFE6E1" /><path d="M410.78 538.11a43.95 43.95 0 1 1-43.95-43.95 44 44 0 0 1 43.95 43.95zM691 538.11a44 44 0 1 1-43.95-43.95A44 44 0 0 1 691 538.11z" fill="#F47A8F" opacity=".4" /><path d="M508.76 549h-1.12c-14.76-0.63-24.05-12.84-25.06-14.23l-1.91-2.63v-116.4a10 10 0 0 1 20 0v109.31c1.92 1.79 4.85 3.85 7.89 4 4.1 0.14 8.16-3.56 10.86-6.68a10 10 0 0 1 15.12 13.09c-9.6 11.04-19.13 13.54-25.78 13.54z" fill="#F47A8F" /><path d="M596.73 438.73c0 16.94 12.09 30.67 27 30.67s27-13.73 27-30.67-12.08-30.66-27-30.66-27 13.73-27 30.66zM362.89 438.73c0 16.94 12.08 30.67 27 30.67s27-13.73 27-30.67-12.08-30.66-27-30.66-27 13.73-27 30.66zM417.4 379.43a5.9 5.9 0 0 1-3.06-0.85c-1.13-0.66-27.16-15.57-61.48-0.62a6 6 0 0 1-4.79-11c40.2-17.52 71.13 0.55 72.43 1.32a6 6 0 0 1-3.1 11.15zM663 379.43a5.9 5.9 0 0 1-3.06-0.85c-1.13-0.66-27.16-15.57-61.48-0.62a6 6 0 0 1-4.79-11c40.2-17.52 71.13 0.55 72.43 1.32a6 6 0 0 1-3.1 11.15z" fill="#31296B" /><path d="M512.17 618.83c-30.53 0-50.87-11.89-52.1-12.63a10 10 0 0 1 10.25-17.2c1.55 0.92 37 21.14 83.7 0.78a10 10 0 1 1 8 18.33 124 124 0 0 1-49.85 10.72z" fill="#E83F63" /><path d="M643.21 426.37a6 6 0 0 1-0.26-12c0.19 0 13.56-1 14.87-7.9a6 6 0 1 1 11.79 2.23c-2.5 13.19-17.61 17.31-26.15 17.66zM370.72 426.37h-0.26c-8.54-0.35-23.65-4.47-26.14-17.66a6 6 0 0 1 11.79-2.23c1.32 7 14.72 7.9 14.85 7.9a6 6 0 0 1-0.24 12z" fill="#31296B" /><path d="M495 250c0 61.9-52 112.08-116.1 112.08h-3.32c-64.12 0-116.1-50.18-116.1-112.08v-3.2c0-61.9 52-112.08 116.1-112.08h3.32c64.1 0.02 116.1 50.2 116.1 112.1z" fill="#C584CE" /><path d="M647.4 215c0 51.68-43.39 93.56-96.92 93.56h-0.12c-53.53 0-96.92-41.88-96.92-93.56v-0.11c0-51.68 43.39-93.57 96.92-93.57h0.12c53.53 0 96.92 41.89 96.92 93.57z" fill="#C584CE" /><path d="M370.33 312.84a77.31 77.31 0 0 1-24.77-3.91 8 8 0 0 1 5.53-15c1.92 0.71 47.22 16.71 73.52-33.73a8 8 0 0 1 14.19 7.4c-19.54 37.45-48.1 45.24-68.47 45.24zM537.44 253.74a66 66 0 0 1-21.58-3.48 8 8 0 1 1 5.57-15c1.6 0.6 39.54 14.11 61.71-28.43a8 8 0 1 1 14.19 7.4c-14.73 28.25-35.61 36.72-50.54 38.85a65.75 65.75 0 0 1-9.35 0.66z" fill="#A55FB2" /><path d="M608.64 769.22c-16.74 51.58-58.89 88.19-108.26 88.19-48.84 0-90.62-35.82-107.72-86.52A237.06 237.06 0 0 0 363 791.28v126.49h276.59V790.69a227.19 227.19 0 0 0-30.95-21.47z" fill="#875093" /></svg>