<?xml version="1.0" standalone="no"?><!DOCTYPE svg PUBLIC "-//W3C//DTD SVG 1.1//EN" "http://www.w3.org/Graphics/SVG/1.1/DTD/svg11.dtd"><svg class="icon" width="200px" height="200.00px" viewBox="0 0 1024 1024" version="1.1" xmlns="http://www.w3.org/2000/svg"><path d="M685.54 444.94c-21.82 31.78-19.48 71.31 5.24 88.28s62.45 5 84.27-26.83 19.48-71.32-5.24-88.29-62.45-4.95-84.27 26.84z" fill="#FFD1CA" /><path d="M723.48 516.87a6 6 0 0 1-6-5.34c-3.47-31.48 12.93-46.45 20.14-51.43 8.14-5.61 20.22-9.6 28.85-5.84a6 6 0 0 1-4.79 11c-3.14-1.37-10.45 0-17.25 4.71-5.43 3.75-17.78 15.18-15 40.23a6 6 0 0 1-5.31 6.62 4.87 4.87 0 0 1-0.64 0.05z" fill="#FFBAB3" /><path d="M330.69 444.94c21.82 31.78 19.47 71.31-5.25 88.28s-62.45 5-84.27-26.83-19.47-71.32 5.25-88.29 62.44-4.95 84.27 26.84z" fill="#FFD1CA" /><path d="M292.75 516.87a5 5 0 0 1-0.67 0 6 6 0 0 1-5.31-6.62c2.77-25-9.58-36.48-15-40.23-6.8-4.69-14.11-6.08-17.24-4.71a6 6 0 0 1-4.79-11c8.63-3.76 20.71 0.23 28.85 5.84 7.21 5 23.6 19.95 20.13 51.43a6 6 0 0 1-5.97 5.29z" fill="#FFBAB3" /><path d="M765.64 962c0-120.29-127.9-217.83-248.08-218.31-120.17 0.48-254.2 98-254.2 218.31z" fill="#2D7F90" /><path d="M571 755.92s-21.28 18.37-55 18.37c-36.75 0-58-18.37-58-18.37V646.83h113z" fill="#FFD1CA" /><path d="M730.6 495c0 122.87-99.62 222.48-222.49 222.48S285.63 617.87 285.63 495V367.84c0-122.87 99.61-222.49 222.48-222.49C631 145.35 730.6 245 730.6 367.84z" fill="#FFE6E1" /><path d="M503.69 570h-1.29c-16.07-0.68-26.22-14-27.33-15.54l-1.91-2.63v-131.1a10 10 0 0 1 20 0V544.8c2.33 2.26 6.13 5.07 10.16 5.21s8.6-2.55 13.31-8a10 10 0 1 1 15.12 13.09c-8.56 9.9-18 14.9-28.06 14.9z" fill="#F47A8F" /><path d="M593.32 438.32c0 17.54 12.52 31.76 27.95 31.76s27.94-14.22 27.94-31.76-12.51-31.75-27.94-31.75-27.95 14.22-27.95 31.75zM351.16 438.32c0 17.54 12.51 31.76 27.95 31.76s27.94-14.22 27.94-31.76-12.51-31.75-27.94-31.75-27.95 14.22-27.95 31.75zM409.21 382.35h-0.09l-60.07-0.87a6 6 0 1 1 0.18-12l60.06 0.86a6 6 0 0 1-0.08 12zM651.11 382.35H651l-60-0.87a6 6 0 0 1 0.17-12l60.07 0.86a6 6 0 0 1-0.08 12z" fill="#31296B" /><path d="M542.19 628.59H542l-74-1.07a10 10 0 1 1 0.29-20l74 1.07a10 10 0 0 1-0.14 20z" fill="#E83F63" /><path d="M592.08 248.48a6 6 0 0 1-1.72-0.25 298.13 298.13 0 0 0-170.79 0 6 6 0 1 1-3.44-11.5 310.17 310.17 0 0 1 177.66 0 6 6 0 0 1-1.71 11.75zM600.08 277a6.46 6.46 0 0 1-1.3-0.14 434.25 434.25 0 0 0-187.63 0 6 6 0 1 1-2.59-11.72 446.27 446.27 0 0 1 192.81 0 6 6 0 0 1-1.29 11.86zM417.85 304.19a6 6 0 0 1-1.15-11.89 459.48 459.48 0 0 1 176.53 0 6 6 0 0 1-2.31 11.78 447.31 447.31 0 0 0-171.92 0 6.48 6.48 0 0 1-1.15 0.11z" fill="#FFBAB3" /><path d="M539.4 861.69C571.27 874.3 662.53 773 571.8 742c-3.25 4.21-11.21 14.94-17.21 19.26-9.28 6.69-20.53 13-40 13zM482.76 862.77c-66.49-5.9-90.88-105.41-28.21-119.08 3.26 4.2 13.95 13.24 19.95 17.56 9.28 6.69 20.53 13 40 13z" fill="#4FC3C8" /></svg>