<?xml version="1.0" standalone="no"?><!DOCTYPE svg PUBLIC "-//W3C//DTD SVG 1.1//EN" "http://www.w3.org/Graphics/SVG/1.1/DTD/svg11.dtd"><svg class="icon" width="200px" height="200.00px" viewBox="0 0 1024 1024" version="1.1" xmlns="http://www.w3.org/2000/svg"><path d="M689.54 444.94c-21.82 31.78-19.48 71.31 5.24 88.28s62.45 5 84.27-26.83 19.48-71.32-5.24-88.29-62.45-4.95-84.27 26.84z" fill="#FFD1CA" /><path d="M727.48 516.87a6 6 0 0 1-6-5.34c-3.47-31.48 12.93-46.45 20.14-51.43 8.14-5.61 20.22-9.6 28.85-5.84a6 6 0 0 1-4.79 11c-3.14-1.37-10.45 0-17.25 4.71-5.43 3.75-17.78 15.18-15 40.23a6 6 0 0 1-5.31 6.62 4.87 4.87 0 0 1-0.64 0.05z" fill="#FFBAB3" /><path d="M334.69 444.94c21.82 31.78 19.47 71.31-5.25 88.28s-62.45 5-84.27-26.83-19.47-71.32 5.25-88.29 62.44-4.95 84.27 26.84z" fill="#FFD1CA" /><path d="M296.75 516.87a5.12 5.12 0 0 1-0.67 0 6 6 0 0 1-5.3-6.62c2.76-25-9.59-36.48-15-40.23-6.8-4.69-14.11-6.08-17.24-4.71a6 6 0 0 1-4.79-11c8.63-3.76 20.7 0.23 28.85 5.84 7.21 5 23.6 19.95 20.13 51.43a6 6 0 0 1-5.98 5.29z" fill="#FFBAB3" /><path d="M261.99 342.82a123.59 154.36 0 1 0 247.18 0 123.59 154.36 0 1 0-247.18 0Z" fill="#7781BC" /><path d="M519.77 339.73a123.59 157.44 0 1 0 247.18 0 123.59 157.44 0 1 0-247.18 0Z" fill="#7781BC" /><path d="M763.25 962c0-120.29-127.9-217.83-248.07-218.31C395 744.17 261 841.71 261 962z" fill="#5858AF" /><path d="M568.62 755.92s-21.29 24-55 24c-36.75 0-58-24-58-24V646.83h113z" fill="#FFD1CA" /><path d="M734.6 495c0 122.87-99.62 222.48-222.49 222.48S289.63 617.87 289.63 495V367.84c0-122.87 99.61-222.49 222.48-222.49C635 145.35 734.6 245 734.6 367.84z" fill="#FFE6E1" /><path d="M507.69 570h-1.29c-16.07-0.68-26.22-14-27.33-15.54l-1.91-2.63v-131.1a10 10 0 0 1 20 0V544.8c2.33 2.26 6.13 5.07 10.16 5.21s8.6-2.55 13.31-8a10 10 0 1 1 15.12 13.09c-8.56 9.9-18 14.9-28.06 14.9z" fill="#F47A8F" /><path d="M597.32 438.32c0 17.54 12.52 31.76 27.95 31.76s27.94-14.22 27.94-31.76-12.51-31.75-27.94-31.75-27.95 14.22-27.95 31.75zM355.16 438.32c0 17.54 12.51 31.76 27.95 31.76s27.94-14.22 27.94-31.76-12.51-31.75-27.94-31.75-27.95 14.22-27.95 31.75zM413.21 382.35h-0.09l-60.07-0.87a6 6 0 1 1 0.18-12l60.06 0.86a6 6 0 0 1-0.08 12zM655.11 382.35H655l-60-0.87a6 6 0 0 1 0.17-12l60.07 0.86a6 6 0 0 1-0.08 12z" fill="#31296B" /><path d="M546.19 628.59H546l-74-1.07a10 10 0 1 1 0.29-20l74 1.07a10 10 0 0 1-0.14 20z" fill="#E83F63" /><path d="M439.98 742.55l71.13 36.06-38.65 76.24-76.69-81.65 44.21-30.65z" fill="#EDF2F4" /><path d="M578.61 738.83l-68.13 39.78 35.65 72.51 76.45-85-43.97-27.29z" fill="#EDF2F4" /><path d="M721.29 174.89c-31.91-30.56-68.34-50.21-109.65-65.45-37.32-13.77-77.57-16.5-116.95-10.84-35.32 5.08-64.33 24.6-95.4 39.85-41.2-2.8-81.84 27.61-107.63 58.88C279.06 212.61 270 245 266.17 265c-5.35 27.85-1 56.66 5.62 84.24 8.77 36.6 39.58 33.23 65.85 13.25a389.51 389.51 0 0 0 57.8-54.09c9.07-10.4 17.77-21.46 29.25-29.1a43.74 43.74 0 0 1 13.64-6c5.36-1.37 21.94 8.44 27.45 10.48 11 4.08 22.13 8 33.29 11.76a682.76 682.76 0 0 0 67.73 19.06 454.67 454.67 0 0 0 66.25 10c19 1.36 44.58-7 53.19 13.11 4.07 9.52 8.72 19 15.8 26.54s17 13 27.29 12.72c20.49-0.58 34.44-21.88 36.5-40.51 0.32-2.86 0.46-5.72 0.52-8.58 28.65-39.95-17.44-126.54-45.06-152.99z" fill="#7781BC" /><path d="M581.35 597c-6.71-10-23.63-14.43-34.61-17a106.78 106.78 0 0 0-37.93-2 1.71 1.71 0 0 1-2.27 0 106.72 106.72 0 0 0-37.92 2c-11 2.6-27.91 7.06-34.62 17-2.49 3.7-2.17 7.62 2.57 8.88 3.27 0.86 7.1-2 9.87-3.25 6-2.75 10.51-1.58 15.82-1.43 7.25 6.16 18 6.88 26.54 3.05a4.78 4.78 0 0 1 5.68 0.26 27.16 27.16 0 0 0 22.68 0.77c1.65-0.7 3.31-1.59 5.1-1.57s3.66 1.08 5.49 1.67c6.91 2.21 13.31-2.3 19.83-3.76 6.33-1.43 15.34-1.73 21.33 1 2.77 1.26 6.6 4.11 9.87 3.25 4.75-1.29 5.06-5.21 2.57-8.87z" fill="#6F76AA" /><path d="M624.61 651.76h-0.05a5 5 0 0 1-4.95-5c0.21-21.86-6.28-41.23-19.29-57.57-9.79-12.3-19.83-18.19-19.93-18.25a5 5 0 0 1 5-8.67c1.83 1 44.8 26.38 44.23 84.59a5 5 0 0 1-5.01 4.9zM393 651.76a5 5 0 0 1-5-5c-0.57-58.21 42.4-83.54 44.23-84.59a5 5 0 0 1 5 8.67c-0.1 0.06-10.13 6-19.93 18.25-13 16.34-19.5 35.71-19.29 57.57a5 5 0 0 1-5 5z" fill="#FFBAB3" /><path d="M763.25 962h-110v-2.85c0-52.83 19-100.49 49.49-134.18 36.7 37.46 60.51 85.13 60.51 137.03zM359.43 959.15V962H261c0-48.42 21.72-93.16 55.52-129.36 26.59 33.06 42.91 77.56 42.91 126.51z" fill="#EDF2F4" /><path d="M643.36 279.68c-85.14 0-149-40.32-151.67-42a8 8 0 1 1 8.64-13.47c0.9 0.58 62.94 39.51 143 39.51a8 8 0 0 1 0 16zM317.16 335.21a8 8 0 0 1-4-14.91c57.18-33.32 72.06-79.43 72.2-79.89a8 8 0 1 1 15.28 4.75c-0.66 2.13-16.93 52.55-79.43 89a8 8 0 0 1-4.05 1.05zM734.6 355.35a7.93 7.93 0 0 1-3-0.61c-28.85-11.84-28.94-47.88-28.93-49.41a8 8 0 0 1 8-7.95 8 8 0 0 1 8 8c0 0.47 0.28 26.83 19 34.52a8 8 0 0 1-3 15.41z" fill="#4F5A7F" /></svg>