<?xml version="1.0" standalone="no"?><!DOCTYPE svg PUBLIC "-//W3C//DTD SVG 1.1//EN" "http://www.w3.org/Graphics/SVG/1.1/DTD/svg11.dtd"><svg t="1630981038171" class="icon" viewBox="0 0 1611 1024" version="1.1" xmlns="http://www.w3.org/2000/svg" p-id="4012" xmlns:xlink="http://www.w3.org/1999/xlink" width="314.6484375" height="200"><defs><style type="text/css"></style></defs><path d="M649.56808952-50.4220403c-8.8770114 6.97479408-55.16428157 38.0443326-102.71969523 70.3820146-48.18948749 31.70360957-88.13603603 60.23685833-90.03825199 62.77314671-1.26814487 2.53628838-8.8770114 55.79835402-16.4858779 118.57150212-17.11994897 143.30031621-15.85180548 142.03217271-109.6944907 157.88397682C235.51894497 375.67447787 218.39899461 380.74705461 218.39899461 393.42849927c0 12.04737222 47.55541505 41.21469342 129.35072944 78.62495219l50.72577588 23.460672 10.77922733 81.16124056c5.70664921 44.38505424 16.48587654 129.35072806 24.72881549 188.95351534l13.94958816 107.79227339 84.9656752 83.69753032 85.59974628 84.33160278h395.66105208l60.23685834-62.13907566c32.97175446-34.23989934 69.74794218-72.28423055 81.7953144-84.96567383l20.92438222-22.82659956 21.55845467-170.56542146c11.41329978-93.20861279 22.19252711-178.80836044 22.82659958-189.58758778 1.26814487-17.75402141 6.34072163-22.19252711 57.70056993-49.45763099 78.62495219-41.84876447 107.15820095-60.23685833 103.98784014-69.11386973-3.80443326-12.04737222-29.80139364-22.19252711-100.81747932-39.94654854-36.14211527-9.51108245-69.11386972-20.2903098-74.18644786-24.72881548-5.70664921-5.70664921-12.04737222-46.28727018-19.02216492-123.64407888l-10.14515629-115.4011399-50.72577586-35.50804421C1006.55073795-31.39987399 989.43078896-42.81317378 981.82192248-42.81317378c-4.4385057 0-67.21165242 18.38809385-139.49588438 41.21469342s-132.52108889 39.94654854-134.42330617 38.67840366c-1.26814487-1.26814487 15.21773302-16.48587654 36.14211526-33.60582691 20.92438224-16.48587654 38.0443326-32.33768203 38.04433262-34.23989797 0.63407244-1.90221593-20.2903098-8.24293895-45.01912669-13.94958815-25.36288795-6.34072163-51.99392075-12.68144466-58.96871347-14.58366058-7.60886652-1.90221593-19.65623873 1.90221593-28.53325013 8.87701001z m6.34072302 506.62368628c25.99696037 4.4385057 83.0634579 10.77922733 126.8144397 12.68144467 95.74490254 4.4385057 191.48980371-11.41329978 278.35769484-45.65319912 62.13907565-24.7288155 51.35984831-12.04737222-16.48587791 19.65623875-26.63103281 12.04737222-50.72577587 19.65623873-57.06649752 17.11994897-6.34072163-2.53628838-8.8770114-1.26814487-6.34072163 2.53628975 2.53628838 3.80443326-20.92438224 12.04737222-59.60278727 20.92438224-54.53020913 12.04737222-76.08866382 13.94958815-150.27511032 11.41329979-76.08866382-2.53628838-94.47675766-5.70664921-145.20253352-22.82659957-52.6279918-17.75402141-147.73882192-60.87093077-147.73882193-67.21165241 0-1.26814487 29.16732121 7.60886652 65.30943648 19.65623736 35.50804285 12.68144466 86.23381872 26.63103281 112.23077908 31.70360957z m502.18518058 87.50196359c-1.26814487 15.85180548-5.07257814 27.26510387-7.60886648 25.36288793-3.17036082-1.90221593-71.65015811 31.06953714-153.44547114 72.918303l-147.73882331 76.08866381 123.01000644-1.90221595 122.37593536-1.26814487 25.36288795-63.40721915c13.94958815-34.87397039 27.26510387-65.30943647 29.80139224-68.47979867 2.53628838-2.53628838 1.26814487 20.2903098-3.17036082 50.72577588-4.4385057 31.06953714-10.1451549 72.28423055-12.04737084 91.94046927l-3.80443326 36.77618772h-620.12261026l-6.34072303-33.60582689c-12.68144466-64.67536402-25.99696037-146.47067841-23.46067062-148.37289437 1.26814487-1.26814487 14.5836606 29.16732121 29.80139365 67.2116538l27.89917633 70.38201323h247.28815773l-150.90918412-76.72273625c-82.42938544-41.84876447-152.81140005-74.18644787-155.98176088-72.91830298-3.17036082 1.90221593-6.97479408-7.60886652-8.24293758-21.55845469-1.90221593-20.2903098-0.63407244-24.7288155 7.6088665-22.82659817 5.07257814 1.90221593 29.80139364 8.8770114 53.8961367 15.8518041 112.23077907 32.33768203 265.67625158 45.65319773 377.27295823 32.97175445 68.47979728-7.60886652 173.73578229-30.43546607 218.75490759-47.55541506 13.94958815-5.07257814 26.63103281-9.51108245 28.53325011-9.51108245 1.90221593-0.63407244 2.53628838 12.04737222 1.26814351 27.89917631z" p-id="4013" fill="#e6e6e6"></path></svg>